<svg xmlns="http://www.w3.org/2000/svg" width="65" height="45" viewBox="0 0 65 45" fill="#cbd5e1"><path stroke="#cdcedd" d="M25.012.52h5.676v15.948h-2.125c-2.551 0-4.486 1.047-5.76 2.941-1.256 1.865-1.842 4.505-1.842 7.665V43.52H.5V24.742c0-7.597 2.246-13.638 6.396-17.778C11.045 2.823 17.158.52 25.012.52Zm33.812 0H64.5v15.948h-2.125c-2.55 0-4.486 1.047-5.76 2.941-1.256 1.865-1.842 4.505-1.842 7.665V43.52h-20.46V24.742c0-7.597 2.246-13.638 6.395-17.778C44.858 2.823 50.97.52 58.824.52Z"></path></svg>