<svg xmlns="http://www.w3.org/2000/svg" xmlns:xlink="http://www.w3.org/1999/xlink" viewBox="0 0 1440 990" width="1440" height="990" preserveAspectRatio="none" style="width: 100%; height: 100%; transform: translate3d(0px, 0px, 0px); content-visibility: visible;" fill="#cbd5e1"><defs><clipPath id="__lottie_element_3"><rect width="1440" height="990" x="0" y="0"></rect></clipPath><filter id="__lottie_element_6" x="0%" y="0%" width="100%" height="100%"><feGaussianBlur in="SourceAlpha" result="filter_result_0_drop_shadow_1" stdDeviation="4"></feGaussianBlur><feOffset dx="2.4492935982947064e-16" dy="4" in="filter_result_0_drop_shadow_1" result="filter_result_0_drop_shadow_2"></feOffset><feFlood flood-color="#6d9eff" flood-opacity="0.12000000000000001" result="filter_result_0_drop_shadow_3"></feFlood><feComposite in="filter_result_0_drop_shadow_3" in2="filter_result_0_drop_shadow_2" operator="in" result="filter_result_0_drop_shadow_4"></feComposite><feMerge result="filter_result_0"><feMergeNode in="filter_result_0_drop_shadow_4"></feMergeNode><feMergeNode in="SourceGraphic"></feMergeNode></feMerge><feGaussianBlur in="SourceAlpha" result="filter_result_1_drop_shadow_1" stdDeviation="4"></feGaussianBlur><feOffset dx="2.4492935982947064e-16" dy="-4" in="filter_result_1_drop_shadow_1" result="filter_result_1_drop_shadow_2"></feOffset><feFlood flood-color="#6d9eff" flood-opacity="0.12000000000000001" result="filter_result_1_drop_shadow_3"></feFlood><feComposite in="filter_result_1_drop_shadow_3" in2="filter_result_1_drop_shadow_2" operator="in" result="filter_result_1_drop_shadow_4"></feComposite><feMerge result="filter_result_1"><feMergeNode in="filter_result_1_drop_shadow_4"></feMergeNode><feMergeNode in="filter_result_0"></feMergeNode></feMerge></filter><linearGradient id="__lottie_element_7" spreadMethod="pad" gradientUnits="userSpaceOnUse" x1="-227" y1="-319" x2="315" y2="325"><stop offset="0%" stop-color="rgb(5,104,253)"></stop><stop offset="50%" stop-color="rgb(5,104,253)"></stop><stop offset="100%" stop-color="rgb(5,104,253)"></stop></linearGradient><mask id="__lottie_element_9"><path stroke="url(#__lottie_element_8)" stroke-linecap="round" stroke-linejoin="round" stroke-width="2" d=""></path></mask><linearGradient id="__lottie_element_8" spreadMethod="pad" gradientUnits="userSpaceOnUse" x1="-227" y1="-319" x2="315" y2="325"><stop stop-color="rgb(255,255,255)" offset="0%" stop-opacity="0"></stop><stop stop-color="rgb(255,255,255)" offset="15%" stop-opacity="0.5"></stop><stop stop-color="rgb(255,255,255)" offset="30%" stop-opacity="1"></stop><stop stop-color="rgb(255,255,255)" offset="50%" stop-opacity="1"></stop><stop stop-color="rgb(255,255,255)" offset="70%" stop-opacity="1"></stop><stop stop-color="rgb(255,255,255)" offset="85%" stop-opacity="1"></stop><stop stop-color="rgb(255,255,255)" offset="100%" stop-opacity="1"></stop></linearGradient><filter id="__lottie_element_12" x="0%" y="0%" width="100%" height="100%"><feGaussianBlur in="SourceAlpha" result="filter_result_0_drop_shadow_1" stdDeviation="4"></feGaussianBlur><feOffset dx="2.4492935982947064e-16" dy="4" in="filter_result_0_drop_shadow_1" result="filter_result_0_drop_shadow_2"></feOffset><feFlood flood-color="#6d9eff" flood-opacity="0.12000000000000001" result="filter_result_0_drop_shadow_3"></feFlood><feComposite in="filter_result_0_drop_shadow_3" in2="filter_result_0_drop_shadow_2" operator="in" result="filter_result_0_drop_shadow_4"></feComposite><feMerge result="filter_result_0"><feMergeNode in="filter_result_0_drop_shadow_4"></feMergeNode><feMergeNode in="SourceGraphic"></feMergeNode></feMerge><feGaussianBlur in="SourceAlpha" result="filter_result_1_drop_shadow_1" stdDeviation="4"></feGaussianBlur><feOffset dx="2.4492935982947064e-16" dy="-4" in="filter_result_1_drop_shadow_1" result="filter_result_1_drop_shadow_2"></feOffset><feFlood flood-color="#6d9eff" flood-opacity="0.12000000000000001" result="filter_result_1_drop_shadow_3"></feFlood><feComposite in="filter_result_1_drop_shadow_3" in2="filter_result_1_drop_shadow_2" operator="in" result="filter_result_1_drop_shadow_4"></feComposite><feMerge result="filter_result_1"><feMergeNode in="filter_result_1_drop_shadow_4"></feMergeNode><feMergeNode in="filter_result_0"></feMergeNode></feMerge></filter><linearGradient id="__lottie_element_13" spreadMethod="pad" gradientUnits="userSpaceOnUse" x1="-271" y1="-238" x2="237" y2="442"><stop offset="0%" stop-color="rgb(5,104,253)"></stop><stop offset="50%" stop-color="rgb(5,104,253)"></stop><stop offset="100%" stop-color="rgb(5,104,253)"></stop></linearGradient><mask id="__lottie_element_15"><path stroke="url(#__lottie_element_14)" stroke-linecap="round" stroke-linejoin="round" stroke-width="2" d=" M-52.125,-316.1130065917969 C-52.125,-308.4490051269531 -52.125,-300.6470031738281 -52.125,-292.7799987792969"></path></mask><linearGradient id="__lottie_element_14" spreadMethod="pad" gradientUnits="userSpaceOnUse" x1="-271" y1="-238" x2="237" y2="442"><stop stop-color="rgb(255,255,255)" offset="0%" stop-opacity="0"></stop><stop stop-color="rgb(255,255,255)" offset="15%" stop-opacity="0.5"></stop><stop stop-color="rgb(255,255,255)" offset="30%" stop-opacity="1"></stop><stop stop-color="rgb(255,255,255)" offset="50%" stop-opacity="1"></stop><stop stop-color="rgb(255,255,255)" offset="70%" stop-opacity="1"></stop><stop stop-color="rgb(255,255,255)" offset="85%" stop-opacity="1"></stop><stop stop-color="rgb(255,255,255)" offset="100%" stop-opacity="1"></stop></linearGradient><filter id="__lottie_element_18" x="0%" y="0%" width="100%" height="100%"><feGaussianBlur in="SourceAlpha" result="filter_result_0_drop_shadow_1" stdDeviation="4"></feGaussianBlur><feOffset dx="2.4492935982947064e-16" dy="4" in="filter_result_0_drop_shadow_1" result="filter_result_0_drop_shadow_2"></feOffset><feFlood flood-color="#6d9eff" flood-opacity="0.25" result="filter_result_0_drop_shadow_3"></feFlood><feComposite in="filter_result_0_drop_shadow_3" in2="filter_result_0_drop_shadow_2" operator="in" result="filter_result_0_drop_shadow_4"></feComposite><feMerge result="filter_result_0"><feMergeNode in="filter_result_0_drop_shadow_4"></feMergeNode><feMergeNode in="SourceGraphic"></feMergeNode></feMerge><feGaussianBlur in="SourceAlpha" result="filter_result_1_drop_shadow_1" stdDeviation="4"></feGaussianBlur><feOffset dx="2.4492935982947064e-16" dy="-4" in="filter_result_1_drop_shadow_1" result="filter_result_1_drop_shadow_2"></feOffset><feFlood flood-color="#6d9eff" flood-opacity="0.25" result="filter_result_1_drop_shadow_3"></feFlood><feComposite in="filter_result_1_drop_shadow_3" in2="filter_result_1_drop_shadow_2" operator="in" result="filter_result_1_drop_shadow_4"></feComposite><feMerge result="filter_result_1"><feMergeNode in="filter_result_1_drop_shadow_4"></feMergeNode><feMergeNode in="filter_result_0"></feMergeNode></feMerge></filter><linearGradient id="__lottie_element_19" spreadMethod="pad" gradientUnits="userSpaceOnUse" x1="-282" y1="-436" x2="-89" y2="443"><stop offset="0%" stop-color="rgb(5,104,253)"></stop><stop offset="50%" stop-color="rgb(5,104,253)"></stop><stop offset="100%" stop-color="rgb(5,104,253)"></stop></linearGradient><mask id="__lottie_element_21"><path stroke="url(#__lottie_element_20)" stroke-linecap="round" stroke-linejoin="round" stroke-width="2" d=" M49.77299880981445,392.6520080566406 C4.427000045776367,392.66900634765625 -45.98400115966797,392.68798828125 -45.98400115966797,392.68798828125 C-68.23400115966797,392.93798828125 -67.30899810791016,394.625 -67.34400177001953,405.25 C-67.34400177001953,405.25 -67.1760025024414,433.56201171875 -67.1760025024414,433.56201171875 M-340.86700439453125,-475 C-340.86700439453125,-475 -340.86700439453125,-453.92401123046875 -340.86700439453125,-437.6310119628906"></path></mask><linearGradient id="__lottie_element_20" spreadMethod="pad" gradientUnits="userSpaceOnUse" x1="-282" y1="-436" x2="-89" y2="443"><stop stop-color="rgb(255,255,255)" offset="0%" stop-opacity="0"></stop><stop stop-color="rgb(255,255,255)" offset="15%" stop-opacity="0.5"></stop><stop stop-color="rgb(255,255,255)" offset="30%" stop-opacity="1"></stop><stop stop-color="rgb(255,255,255)" offset="50%" stop-opacity="1"></stop><stop stop-color="rgb(255,255,255)" offset="70%" stop-opacity="1"></stop><stop stop-color="rgb(255,255,255)" offset="85%" stop-opacity="0.5"></stop><stop stop-color="rgb(255,255,255)" offset="100%" stop-opacity="0"></stop></linearGradient><filter id="__lottie_element_24" x="0%" y="0%" width="100%" height="100%"><feGaussianBlur in="SourceAlpha" result="filter_result_0_drop_shadow_1" stdDeviation="4"></feGaussianBlur><feOffset dx="2.4492935982947064e-16" dy="4" in="filter_result_0_drop_shadow_1" result="filter_result_0_drop_shadow_2"></feOffset><feFlood flood-color="#6d9eff" flood-opacity="0.25" result="filter_result_0_drop_shadow_3"></feFlood><feComposite in="filter_result_0_drop_shadow_3" in2="filter_result_0_drop_shadow_2" operator="in" result="filter_result_0_drop_shadow_4"></feComposite><feMerge result="filter_result_0"><feMergeNode in="filter_result_0_drop_shadow_4"></feMergeNode><feMergeNode in="SourceGraphic"></feMergeNode></feMerge><feGaussianBlur in="SourceAlpha" result="filter_result_1_drop_shadow_1" stdDeviation="4"></feGaussianBlur><feOffset dx="2.4492935982947064e-16" dy="-4" in="filter_result_1_drop_shadow_1" result="filter_result_1_drop_shadow_2"></feOffset><feFlood flood-color="#6d9eff" flood-opacity="0.25" result="filter_result_1_drop_shadow_3"></feFlood><feComposite in="filter_result_1_drop_shadow_3" in2="filter_result_1_drop_shadow_2" operator="in" result="filter_result_1_drop_shadow_4"></feComposite><feMerge result="filter_result_1"><feMergeNode in="filter_result_1_drop_shadow_4"></feMergeNode><feMergeNode in="filter_result_0"></feMergeNode></feMerge></filter><linearGradient id="__lottie_element_25" spreadMethod="pad" gradientUnits="userSpaceOnUse" x1="360" y1="-506" x2="123" y2="506"><stop offset="0%" stop-color="rgb(5,104,253)"></stop><stop offset="24%" stop-color="rgb(5,104,253)"></stop><stop offset="49%" stop-color="rgb(5,104,253)"></stop><stop offset="74%" stop-color="rgb(5,104,253)"></stop><stop offset="100%" stop-color="rgb(5,104,253)"></stop></linearGradient><mask id="__lottie_element_27"><path stroke="url(#__lottie_element_26)" stroke-linecap="butt" stroke-linejoin="miter" stroke-miterlimit="4" stroke-width="2" d=""></path></mask><linearGradient id="__lottie_element_26" spreadMethod="pad" gradientUnits="userSpaceOnUse" x1="360" y1="-506" x2="123" y2="506"><stop stop-color="rgb(255,255,255)" offset="0%" stop-opacity="0"></stop><stop stop-color="rgb(255,255,255)" offset="15%" stop-opacity="0.5"></stop><stop stop-color="rgb(255,255,255)" offset="30%" stop-opacity="1"></stop><stop stop-color="rgb(255,255,255)" offset="50%" stop-opacity="1"></stop><stop stop-color="rgb(255,255,255)" offset="70%" stop-opacity="1"></stop><stop stop-color="rgb(255,255,255)" offset="85%" stop-opacity="1"></stop><stop stop-color="rgb(255,255,255)" offset="100%" stop-opacity="1"></stop></linearGradient><filter id="__lottie_element_30" x="0%" y="0%" width="100%" height="100%"><feGaussianBlur in="SourceAlpha" result="filter_result_0_drop_shadow_1" stdDeviation="4"></feGaussianBlur><feOffset dx="2.4492935982947064e-16" dy="4" in="filter_result_0_drop_shadow_1" result="filter_result_0_drop_shadow_2"></feOffset><feFlood flood-color="#6d9eff" flood-opacity="0.12000000000000001" result="filter_result_0_drop_shadow_3"></feFlood><feComposite in="filter_result_0_drop_shadow_3" in2="filter_result_0_drop_shadow_2" operator="in" result="filter_result_0_drop_shadow_4"></feComposite><feMerge result="filter_result_0"><feMergeNode in="filter_result_0_drop_shadow_4"></feMergeNode><feMergeNode in="SourceGraphic"></feMergeNode></feMerge><feGaussianBlur in="SourceAlpha" result="filter_result_1_drop_shadow_1" stdDeviation="4"></feGaussianBlur><feOffset dx="2.4492935982947064e-16" dy="-4" in="filter_result_1_drop_shadow_1" result="filter_result_1_drop_shadow_2"></feOffset><feFlood flood-color="#6d9eff" flood-opacity="0.12000000000000001" result="filter_result_1_drop_shadow_3"></feFlood><feComposite in="filter_result_1_drop_shadow_3" in2="filter_result_1_drop_shadow_2" operator="in" result="filter_result_1_drop_shadow_4"></feComposite><feMerge result="filter_result_1"><feMergeNode in="filter_result_1_drop_shadow_4"></feMergeNode><feMergeNode in="filter_result_0"></feMergeNode></feMerge></filter><linearGradient id="__lottie_element_31" spreadMethod="pad" gradientUnits="userSpaceOnUse" x1="-271" y1="-238" x2="237" y2="442"><stop offset="0%" stop-color="rgb(5,104,253)"></stop><stop offset="50%" stop-color="rgb(5,104,253)"></stop><stop offset="100%" stop-color="rgb(5,104,253)"></stop></linearGradient><mask id="__lottie_element_33"><path stroke="url(#__lottie_element_32)" stroke-linecap="round" stroke-linejoin="round" stroke-width="2" d=""></path></mask><linearGradient id="__lottie_element_32" spreadMethod="pad" gradientUnits="userSpaceOnUse" x1="-271" y1="-238" x2="237" y2="442"><stop stop-color="rgb(255,255,255)" offset="0%" stop-opacity="0"></stop><stop stop-color="rgb(255,255,255)" offset="15%" stop-opacity="0.5"></stop><stop stop-color="rgb(255,255,255)" offset="30%" stop-opacity="1"></stop><stop stop-color="rgb(255,255,255)" offset="50%" stop-opacity="1"></stop><stop stop-color="rgb(255,255,255)" offset="70%" stop-opacity="1"></stop><stop stop-color="rgb(255,255,255)" offset="85%" stop-opacity="1"></stop><stop stop-color="rgb(255,255,255)" offset="100%" stop-opacity="1"></stop></linearGradient><filter id="__lottie_element_36" x="0%" y="0%" width="100%" height="100%"><feGaussianBlur in="SourceAlpha" result="filter_result_0_drop_shadow_1" stdDeviation="4"></feGaussianBlur><feOffset dx="2.4492935982947064e-16" dy="4" in="filter_result_0_drop_shadow_1" result="filter_result_0_drop_shadow_2"></feOffset><feFlood flood-color="#6d9eff" flood-opacity="0.12000000000000001" result="filter_result_0_drop_shadow_3"></feFlood><feComposite in="filter_result_0_drop_shadow_3" in2="filter_result_0_drop_shadow_2" operator="in" result="filter_result_0_drop_shadow_4"></feComposite><feMerge result="filter_result_0"><feMergeNode in="filter_result_0_drop_shadow_4"></feMergeNode><feMergeNode in="SourceGraphic"></feMergeNode></feMerge><feGaussianBlur in="SourceAlpha" result="filter_result_1_drop_shadow_1" stdDeviation="4"></feGaussianBlur><feOffset dx="2.4492935982947064e-16" dy="-4" in="filter_result_1_drop_shadow_1" result="filter_result_1_drop_shadow_2"></feOffset><feFlood flood-color="#6d9eff" flood-opacity="0.12000000000000001" result="filter_result_1_drop_shadow_3"></feFlood><feComposite in="filter_result_1_drop_shadow_3" in2="filter_result_1_drop_shadow_2" operator="in" result="filter_result_1_drop_shadow_4"></feComposite><feMerge result="filter_result_1"><feMergeNode in="filter_result_1_drop_shadow_4"></feMergeNode><feMergeNode in="filter_result_0"></feMergeNode></feMerge></filter><linearGradient id="__lottie_element_37" spreadMethod="pad" gradientUnits="userSpaceOnUse" x1="-271" y1="-238" x2="237" y2="442"><stop offset="0%" stop-color="rgb(5,104,253)"></stop><stop offset="50%" stop-color="rgb(5,104,253)"></stop><stop offset="100%" stop-color="rgb(5,104,253)"></stop></linearGradient><mask id="__lottie_element_39"><path stroke="url(#__lottie_element_38)" stroke-linecap="round" stroke-linejoin="round" stroke-width="2" d=""></path></mask><linearGradient id="__lottie_element_38" spreadMethod="pad" gradientUnits="userSpaceOnUse" x1="-271" y1="-238" x2="237" y2="442"><stop stop-color="rgb(255,255,255)" offset="0%" stop-opacity="0"></stop><stop stop-color="rgb(255,255,255)" offset="15%" stop-opacity="0.5"></stop><stop stop-color="rgb(255,255,255)" offset="30%" stop-opacity="1"></stop><stop stop-color="rgb(255,255,255)" offset="50%" stop-opacity="1"></stop><stop stop-color="rgb(255,255,255)" offset="70%" stop-opacity="1"></stop><stop stop-color="rgb(255,255,255)" offset="85%" stop-opacity="1"></stop><stop stop-color="rgb(255,255,255)" offset="100%" stop-opacity="1"></stop></linearGradient><filter id="__lottie_element_42" x="0%" y="0%" width="100%" height="100%"><feGaussianBlur in="SourceAlpha" result="filter_result_0_drop_shadow_1" stdDeviation="4"></feGaussianBlur><feOffset dx="2.4492935982947064e-16" dy="4" in="filter_result_0_drop_shadow_1" result="filter_result_0_drop_shadow_2"></feOffset><feFlood flood-color="#6d9eff" flood-opacity="0.12000000000000001" result="filter_result_0_drop_shadow_3"></feFlood><feComposite in="filter_result_0_drop_shadow_3" in2="filter_result_0_drop_shadow_2" operator="in" result="filter_result_0_drop_shadow_4"></feComposite><feMerge result="filter_result_0"><feMergeNode in="filter_result_0_drop_shadow_4"></feMergeNode><feMergeNode in="SourceGraphic"></feMergeNode></feMerge><feGaussianBlur in="SourceAlpha" result="filter_result_1_drop_shadow_1" stdDeviation="4"></feGaussianBlur><feOffset dx="2.4492935982947064e-16" dy="-4" in="filter_result_1_drop_shadow_1" result="filter_result_1_drop_shadow_2"></feOffset><feFlood flood-color="#6d9eff" flood-opacity="0.12000000000000001" result="filter_result_1_drop_shadow_3"></feFlood><feComposite in="filter_result_1_drop_shadow_3" in2="filter_result_1_drop_shadow_2" operator="in" result="filter_result_1_drop_shadow_4"></feComposite><feMerge result="filter_result_1"><feMergeNode in="filter_result_1_drop_shadow_4"></feMergeNode><feMergeNode in="filter_result_0"></feMergeNode></feMerge></filter><linearGradient id="__lottie_element_43" spreadMethod="pad" gradientUnits="userSpaceOnUse" x1="144" y1="-6" x2="-199" y2="514"><stop offset="0%" stop-color="rgb(5,104,253)"></stop><stop offset="50%" stop-color="rgb(5,104,253)"></stop><stop offset="100%" stop-color="rgb(5,104,253)"></stop></linearGradient><mask id="__lottie_element_45"><path stroke="url(#__lottie_element_44)" stroke-linecap="round" stroke-linejoin="round" stroke-width="2" d=""></path></mask><linearGradient id="__lottie_element_44" spreadMethod="pad" gradientUnits="userSpaceOnUse" x1="144" y1="-6" x2="-199" y2="514"><stop stop-color="rgb(255,255,255)" offset="0%" stop-opacity="0"></stop><stop stop-color="rgb(255,255,255)" offset="15%" stop-opacity="0.5"></stop><stop stop-color="rgb(255,255,255)" offset="30%" stop-opacity="1"></stop><stop stop-color="rgb(255,255,255)" offset="50%" stop-opacity="1"></stop><stop stop-color="rgb(255,255,255)" offset="70%" stop-opacity="1"></stop><stop stop-color="rgb(255,255,255)" offset="85%" stop-opacity="1"></stop><stop stop-color="rgb(255,255,255)" offset="100%" stop-opacity="1"></stop></linearGradient><filter id="__lottie_element_49" x="0%" y="0%" width="100%" height="100%"><feGaussianBlur in="SourceAlpha" result="filter_result_0_drop_shadow_1" stdDeviation="4"></feGaussianBlur><feOffset dx="2.4492935982947064e-16" dy="4" in="filter_result_0_drop_shadow_1" result="filter_result_0_drop_shadow_2"></feOffset><feFlood flood-color="#6d9eff" flood-opacity="0.25" result="filter_result_0_drop_shadow_3"></feFlood><feComposite in="filter_result_0_drop_shadow_3" in2="filter_result_0_drop_shadow_2" operator="in" result="filter_result_0_drop_shadow_4"></feComposite><feMerge result="filter_result_0"><feMergeNode in="filter_result_0_drop_shadow_4"></feMergeNode><feMergeNode in="SourceGraphic"></feMergeNode></feMerge><feGaussianBlur in="SourceAlpha" result="filter_result_1_drop_shadow_1" stdDeviation="4"></feGaussianBlur><feOffset dx="2.4492935982947064e-16" dy="-4" in="filter_result_1_drop_shadow_1" result="filter_result_1_drop_shadow_2"></feOffset><feFlood flood-color="#6d9eff" flood-opacity="0.25" result="filter_result_1_drop_shadow_3"></feFlood><feComposite in="filter_result_1_drop_shadow_3" in2="filter_result_1_drop_shadow_2" operator="in" result="filter_result_1_drop_shadow_4"></feComposite><feMerge result="filter_result_1"><feMergeNode in="filter_result_1_drop_shadow_4"></feMergeNode><feMergeNode in="filter_result_0"></feMergeNode></feMerge></filter><linearGradient id="__lottie_element_50" spreadMethod="pad" gradientUnits="userSpaceOnUse" x1="-71" y1="-421" x2="-335" y2="494"><stop offset="0%" stop-color="rgb(5,104,253)"></stop><stop offset="50%" stop-color="rgb(5,104,253)"></stop><stop offset="100%" stop-color="rgb(5,104,253)"></stop></linearGradient><mask id="__lottie_element_52"><path stroke="url(#__lottie_element_51)" stroke-linecap="round" stroke-linejoin="round" stroke-width="2" d=" M-195.08700561523438,407.6300048828125 C-195.1020050048828,412.3909912109375 -195.11700439453125,417.00201416015625 -195.1300048828125,421.38299560546875"></path></mask><linearGradient id="__lottie_element_51" spreadMethod="pad" gradientUnits="userSpaceOnUse" x1="-71" y1="-421" x2="-335" y2="494"><stop stop-color="rgb(255,255,255)" offset="0%" stop-opacity="0"></stop><stop stop-color="rgb(255,255,255)" offset="15%" stop-opacity="0.5"></stop><stop stop-color="rgb(255,255,255)" offset="30%" stop-opacity="1"></stop><stop stop-color="rgb(255,255,255)" offset="50%" stop-opacity="1"></stop><stop stop-color="rgb(255,255,255)" offset="70%" stop-opacity="1"></stop><stop stop-color="rgb(255,255,255)" offset="85%" stop-opacity="1"></stop><stop stop-color="rgb(255,255,255)" offset="100%" stop-opacity="1"></stop></linearGradient><filter id="__lottie_element_55" x="0%" y="0%" width="100%" height="100%"><feGaussianBlur in="SourceAlpha" result="filter_result_0_drop_shadow_1" stdDeviation="4"></feGaussianBlur><feOffset dx="2.4492935982947064e-16" dy="4" in="filter_result_0_drop_shadow_1" result="filter_result_0_drop_shadow_2"></feOffset><feFlood flood-color="#6d9eff" flood-opacity="0.12000000000000001" result="filter_result_0_drop_shadow_3"></feFlood><feComposite in="filter_result_0_drop_shadow_3" in2="filter_result_0_drop_shadow_2" operator="in" result="filter_result_0_drop_shadow_4"></feComposite><feMerge result="filter_result_0"><feMergeNode in="filter_result_0_drop_shadow_4"></feMergeNode><feMergeNode in="SourceGraphic"></feMergeNode></feMerge><feGaussianBlur in="SourceAlpha" result="filter_result_1_drop_shadow_1" stdDeviation="4"></feGaussianBlur><feOffset dx="2.4492935982947064e-16" dy="-4" in="filter_result_1_drop_shadow_1" result="filter_result_1_drop_shadow_2"></feOffset><feFlood flood-color="#6d9eff" flood-opacity="0.12000000000000001" result="filter_result_1_drop_shadow_3"></feFlood><feComposite in="filter_result_1_drop_shadow_3" in2="filter_result_1_drop_shadow_2" operator="in" result="filter_result_1_drop_shadow_4"></feComposite><feMerge result="filter_result_1"><feMergeNode in="filter_result_1_drop_shadow_4"></feMergeNode><feMergeNode in="filter_result_0"></feMergeNode></feMerge></filter><linearGradient id="__lottie_element_56" spreadMethod="pad" gradientUnits="userSpaceOnUse" x1="18" y1="-123" x2="-77" y2="436"><stop offset="0%" stop-color="rgb(5,104,253)"></stop><stop offset="24%" stop-color="rgb(5,104,253)"></stop><stop offset="49%" stop-color="rgb(5,104,253)"></stop><stop offset="74%" stop-color="rgb(5,104,253)"></stop><stop offset="100%" stop-color="rgb(5,104,253)"></stop></linearGradient><mask id="__lottie_element_58"><path stroke="url(#__lottie_element_57)" stroke-linecap="round" stroke-linejoin="round" stroke-width="2" d=""></path></mask><linearGradient id="__lottie_element_57" spreadMethod="pad" gradientUnits="userSpaceOnUse" x1="18" y1="-123" x2="-77" y2="436"><stop stop-color="rgb(255,255,255)" offset="0%" stop-opacity="0"></stop><stop stop-color="rgb(255,255,255)" offset="15%" stop-opacity="0.5"></stop><stop stop-color="rgb(255,255,255)" offset="30%" stop-opacity="1"></stop><stop stop-color="rgb(255,255,255)" offset="50%" stop-opacity="1"></stop><stop stop-color="rgb(255,255,255)" offset="70%" stop-opacity="1"></stop><stop stop-color="rgb(255,255,255)" offset="85%" stop-opacity="1"></stop><stop stop-color="rgb(255,255,255)" offset="100%" stop-opacity="1"></stop></linearGradient><filter id="__lottie_element_61" x="0%" y="0%" width="100%" height="100%"><feGaussianBlur in="SourceAlpha" result="filter_result_0_drop_shadow_1" stdDeviation="4"></feGaussianBlur><feOffset dx="2.4492935982947064e-16" dy="4" in="filter_result_0_drop_shadow_1" result="filter_result_0_drop_shadow_2"></feOffset><feFlood flood-color="#6d9eff" flood-opacity="0.25" result="filter_result_0_drop_shadow_3"></feFlood><feComposite in="filter_result_0_drop_shadow_3" in2="filter_result_0_drop_shadow_2" operator="in" result="filter_result_0_drop_shadow_4"></feComposite><feMerge result="filter_result_0"><feMergeNode in="filter_result_0_drop_shadow_4"></feMergeNode><feMergeNode in="SourceGraphic"></feMergeNode></feMerge><feGaussianBlur in="SourceAlpha" result="filter_result_1_drop_shadow_1" stdDeviation="4"></feGaussianBlur><feOffset dx="2.4492935982947064e-16" dy="-4" in="filter_result_1_drop_shadow_1" result="filter_result_1_drop_shadow_2"></feOffset><feFlood flood-color="#6d9eff" flood-opacity="0.25" result="filter_result_1_drop_shadow_3"></feFlood><feComposite in="filter_result_1_drop_shadow_3" in2="filter_result_1_drop_shadow_2" operator="in" result="filter_result_1_drop_shadow_4"></feComposite><feMerge result="filter_result_1"><feMergeNode in="filter_result_1_drop_shadow_4"></feMergeNode><feMergeNode in="filter_result_0"></feMergeNode></feMerge></filter><linearGradient id="__lottie_element_62" spreadMethod="pad" gradientUnits="userSpaceOnUse" x1="-282" y1="-436" x2="-89" y2="443"><stop offset="0%" stop-color="rgb(5,104,253)"></stop><stop offset="50%" stop-color="rgb(5,104,253)"></stop><stop offset="100%" stop-color="rgb(5,104,253)"></stop></linearGradient><mask id="__lottie_element_64"><path stroke="url(#__lottie_element_63)" stroke-linecap="round" stroke-linejoin="round" stroke-width="2" d=""></path></mask><linearGradient id="__lottie_element_63" spreadMethod="pad" gradientUnits="userSpaceOnUse" x1="-282" y1="-436" x2="-89" y2="443"><stop stop-color="rgb(255,255,255)" offset="0%" stop-opacity="0"></stop><stop stop-color="rgb(255,255,255)" offset="15%" stop-opacity="0.5"></stop><stop stop-color="rgb(255,255,255)" offset="30%" stop-opacity="1"></stop><stop stop-color="rgb(255,255,255)" offset="50%" stop-opacity="1"></stop><stop stop-color="rgb(255,255,255)" offset="70%" stop-opacity="1"></stop><stop stop-color="rgb(255,255,255)" offset="85%" stop-opacity="1"></stop><stop stop-color="rgb(255,255,255)" offset="100%" stop-opacity="1"></stop></linearGradient><g id="__lottie_element_65"><g clip-path="url(#__lottie_element_66)" transform="matrix(1,0,0,1,0,0)" opacity="1" style="display: block;"><g transform="matrix(1,0,0,1,720,495)" opacity="1" style="display: block;"><g opacity="1" transform="matrix(1,0,0,1,0,0)"><path fill="rgb(0,0,0)" fill-opacity="1" d=" M720,-495 C720,-495 720,495 720,495 C720,495 -720,495 -720,495 C-720,495 -720,-495 -720,-495 C-720,-495 720,-495 720,-495z"></path><path stroke-linecap="butt" stroke-linejoin="miter" fill-opacity="0" stroke-miterlimit="4" stroke="rgb(5,103,253)" stroke-opacity="1" stroke-width="0" d=" M720,-495 C720,-495 720,495 720,495 C720,495 -720,495 -720,495 C-720,495 -720,-495 -720,-495 C-720,-495 720,-495 720,-495z"></path></g></g><g filter="url(#__lottie_element_71)" transform="matrix(1,0,0,1,719.0980224609375,580.625)" opacity="1" style="display: block;"><g opacity="1" transform="matrix(1,0,0,1,0.9020000100135803,4.375)"><path fill="rgb(255,255,255)" fill-opacity="1" d=" M648,-430.875 C648,-430.875 648,430.875 648,430.875 C648,466.19659423828125 619.3215942382812,494.875 584,494.875 C584,494.875 -584,494.875 -584,494.875 C-619.3215942382812,494.875 -648,466.19659423828125 -648,430.875 C-648,430.875 -648,-430.875 -648,-430.875 C-648,-466.19659423828125 -619.3215942382812,-494.875 -584,-494.875 C-584,-494.875 584,-494.875 584,-494.875 C619.3215942382812,-494.875 648,-466.19659423828125 648,-430.875z"></path><path stroke-linecap="butt" stroke-linejoin="miter" fill-opacity="0" stroke-miterlimit="4" stroke="rgb(5,103,253)" stroke-opacity="1" stroke-width="0" d=" M648,-430.875 C648,-430.875 648,430.875 648,430.875 C648,466.19659423828125 619.3215942382812,494.875 584,494.875 C584,494.875 -584,494.875 -584,494.875 C-619.3215942382812,494.875 -648,466.19659423828125 -648,430.875 C-648,430.875 -648,-430.875 -648,-430.875 C-648,-466.19659423828125 -619.3215942382812,-494.875 -584,-494.875 C-584,-494.875 584,-494.875 584,-494.875 C619.3215942382812,-494.875 648,-466.19659423828125 648,-430.875z"></path></g></g></g></g><clipPath id="__lottie_element_66"><path d="M0,0 L1440,0 L1440,990 L0,990z"></path></clipPath><filter id="__lottie_element_71" x="-100%" y="-100%" width="300%" height="300%"><feGaussianBlur result="filter_result_0" stdDeviation="48 48" edgeMode="duplicate"></feGaussianBlur></filter><g id="__lottie_element_75"><g transform="matrix(1,0,0,1,720,495)" opacity="1" style="display: block;"><g opacity="1" transform="matrix(1,0,0,1,0,0)"><path fill="url(#__lottie_element_78)" fill-opacity="1" d=" M720,-495 C720,-495 720,495 720,495 C720,495 -720,495 -720,495 C-720,495 -720,-495 -720,-495 C-720,-495 720,-495 720,-495z"></path></g></g></g><linearGradient id="__lottie_element_78" spreadMethod="pad" gradientUnits="userSpaceOnUse" x1="-720" y1="0" x2="720" y2="0"><stop offset="0%" stop-color="rgb(0,0,0)" stop-opacity="0"></stop><stop offset="3%" stop-color="rgb(128,128,128)" stop-opacity="0.5"></stop><stop offset="5%" stop-color="rgb(255,255,255)" stop-opacity="1"></stop><stop offset="50%" stop-color="rgb(255,255,255)" stop-opacity="1"></stop><stop offset="95%" stop-color="rgb(255,255,255)" stop-opacity="1"></stop><stop offset="98%" stop-color="rgb(128,128,128)" stop-opacity="0.5"></stop><stop offset="100%" stop-color="rgb(0,0,0)" stop-opacity="0"></stop></linearGradient><mask id="__lottie_element_65_3" mask-type="luminance"><use xlink:href="#__lottie_element_65"></use></mask></defs><g clip-path="url(#__lottie_element_3)"><g mask="url(#__lottie_element_65_3)" style="display: block;"><g transform="matrix(1,0,0,1,0,15.5)" opacity="1"><g opacity="1" transform="matrix(1,0,0,1,1327.5,709.5)"><path stroke-linecap="round" stroke-linejoin="round" fill-opacity="0" stroke="rgb(237,237,237)" stroke-opacity="1" stroke-width="2" d=" M-51.5,-76.5 C-51.5,-76.5 51.5,-76.5 51.5,-76.5 C60.33700180053711,-76.5 67.5,-69.33699798583984 67.5,-60.5 C67.5,-60.5 67.5,60.5 67.5,60.5 C67.5,69.33699798583984 60.33700180053711,76.5 51.5,76.5 C51.5,76.5 -51.5,76.5 -51.5,76.5 C-60.33700180053711,76.5 -67.5,69.33699798583984 -67.5,60.5 C-67.5,60.5 -67.5,-60.5 -67.5,-60.5 C-67.5,-69.33699798583984 -60.33700180053711,-76.5 -51.5,-76.5z"></path></g><g opacity="1" transform="matrix(1,0,0,1,1327.5,811.5)"><path stroke-linecap="round" stroke-linejoin="round" fill-opacity="0" stroke="rgb(237,237,237)" stroke-opacity="1" stroke-width="2" d=" M-51.5,-25.5 C-51.5,-25.5 51.5,-25.5 51.5,-25.5 C60.33700180053711,-25.5 67.5,-18.336999893188477 67.5,-9.5 C67.5,-9.5 67.5,9.5 67.5,9.5 C67.5,18.336999893188477 60.33700180053711,25.5 51.5,25.5 C51.5,25.5 -51.5,25.5 -51.5,25.5 C-60.33700180053711,25.5 -67.5,18.336999893188477 -67.5,9.5 C-67.5,9.5 -67.5,-9.5 -67.5,-9.5 C-67.5,-18.336999893188477 -60.33700180053711,-25.5 -51.5,-25.5z"></path></g><g opacity="1" transform="matrix(1,0,0,1,913.5,402)"><path stroke-linecap="round" stroke-linejoin="round" fill-opacity="0" stroke="rgb(237,237,237)" stroke-opacity="1" stroke-width="2" d=" M-60.5,-77 C-60.5,-77 60.5,-77 60.5,-77 C69.33699798583984,-77 76.5,-69.83699798583984 76.5,-61 C76.5,-61 76.5,61 76.5,61 C76.5,69.83699798583984 69.33699798583984,77 60.5,77 C60.5,77 -60.5,77 -60.5,77 C-69.33699798583984,77 -76.5,69.83699798583984 -76.5,61 C-76.5,61 -76.5,-61 -76.5,-61 C-76.5,-69.83699798583984 -69.33699798583984,-77 -60.5,-77z"></path></g><g opacity="1" transform="matrix(1,0,0,1,913.5,41)"><path stroke-linecap="round" stroke-linejoin="round" fill-opacity="0" stroke="rgb(237,237,237)" stroke-opacity="1" stroke-width="2" d=" M-60.5,-77 C-60.5,-77 60.5,-77 60.5,-77 C69.33699798583984,-77 76.5,-69.83699798583984 76.5,-61 C76.5,-61 76.5,61 76.5,61 C76.5,69.83699798583984 69.33699798583984,77 60.5,77 C60.5,77 -60.5,77 -60.5,77 C-69.33699798583984,77 -76.5,69.83699798583984 -76.5,61 C-76.5,61 -76.5,-61 -76.5,-61 C-76.5,-69.83699798583984 -69.33699798583984,-77 -60.5,-77z"></path></g><g opacity="1" transform="matrix(1,0,0,1,856,556)"><path stroke-linecap="round" stroke-linejoin="round" fill-opacity="0" stroke="rgb(237,237,237)" stroke-opacity="1" stroke-width="2" d=" M-55,-77 C-55,-77 55,-77 55,-77 C63.83700180053711,-77 71,-69.83699798583984 71,-61 C71,-61 71,61 71,61 C71,69.83699798583984 63.83700180053711,77 55,77 C55,77 -55,77 -55,77 C-63.83700180053711,77 -71,69.83699798583984 -71,61 C-71,61 -71,-61 -71,-61 C-71,-69.83699798583984 -63.83700180053711,-77 -55,-77z"></path></g><g opacity="1" transform="matrix(1,0,0,1,913.5,197.5)"><path stroke-linecap="round" stroke-linejoin="round" fill-opacity="0" stroke="rgb(237,237,237)" stroke-opacity="1" stroke-width="2" d=" M-60.5,-79.5 C-60.5,-79.5 60.5,-79.5 60.5,-79.5 C69.33699798583984,-79.5 76.5,-72.33699798583984 76.5,-63.5 C76.5,-63.5 76.5,63.5 76.5,63.5 C76.5,72.33699798583984 69.33699798583984,79.5 60.5,79.5 C60.5,79.5 -60.5,79.5 -60.5,79.5 C-69.33699798583984,79.5 -76.5,72.33699798583984 -76.5,63.5 C-76.5,63.5 -76.5,-63.5 -76.5,-63.5 C-76.5,-72.33699798583984 -69.33699798583984,-79.5 -60.5,-79.5z"></path></g><g opacity="1" transform="matrix(1,0,0,1,1057.5,401.5)"><path stroke-linecap="round" stroke-linejoin="round" fill-opacity="0" stroke="rgb(237,237,237)" stroke-opacity="1" stroke-width="2" d=" M-51.5,-77.5 C-51.5,-77.5 51.5,-77.5 51.5,-77.5 C60.33700180053711,-77.5 67.5,-70.33699798583984 67.5,-61.5 C67.5,-61.5 67.5,61.5 67.5,61.5 C67.5,70.33699798583984 60.33700180053711,77.5 51.5,77.5 C51.5,77.5 -51.5,77.5 -51.5,77.5 C-60.33700180053711,77.5 -67.5,70.33699798583984 -67.5,61.5 C-67.5,61.5 -67.5,-61.5 -67.5,-61.5 C-67.5,-70.33699798583984 -60.33700180053711,-77.5 -51.5,-77.5z"></path></g><g opacity="1" transform="matrix(1,0,0,1,1161,658)"><path stroke-linecap="round" stroke-linejoin="round" fill-opacity="0" stroke="rgb(237,237,237)" stroke-opacity="1" stroke-width="2" d=" M-20,-25 C-20,-25 20,-25 20,-25 C28.836999893188477,-25 36,-17.836999893188477 36,-9 C36,-9 36,9 36,9 C36,17.836999893188477 28.836999893188477,25 20,25 C20,25 -20,25 -20,25 C-28.836999893188477,25 -36,17.836999893188477 -36,9 C-36,9 -36,-9 -36,-9 C-36,-17.836999893188477 -28.836999893188477,-25 -20,-25z"></path></g><g opacity="1" transform="matrix(1,0,0,1,1243,68.5)"><path stroke-linecap="round" stroke-linejoin="round" fill-opacity="0" stroke="rgb(237,237,237)" stroke-opacity="1" stroke-width="2" d=" M-136,-101.5 C-136,-101.5 136,-101.5 136,-101.5 C144.83700561523438,-101.5 152,-94.33699798583984 152,-85.5 C152,-85.5 152,85.5 152,85.5 C152,94.33699798583984 144.83700561523438,101.5 136,101.5 C136,101.5 -136,101.5 -136,101.5 C-144.83700561523438,101.5 -152,94.33699798583984 -152,85.5 C-152,85.5 -152,-85.5 -152,-85.5 C-152,-94.33699798583984 -144.83700561523438,-101.5 -136,-101.5z"></path></g><g opacity="1" transform="matrix(1,0,0,1,1327.5,247)"><path stroke-linecap="round" stroke-linejoin="round" fill-opacity="0" stroke="rgb(237,237,237)" stroke-opacity="1" stroke-width="2" d=" M-51.5,-77 C-51.5,-77 51.5,-77 51.5,-77 C60.33700180053711,-77 67.5,-69.83699798583984 67.5,-61 C67.5,-61 67.5,61 67.5,61 C67.5,69.83699798583984 60.33700180053711,77 51.5,77 C51.5,77 -51.5,77 -51.5,77 C-60.33700180053711,77 -67.5,69.83699798583984 -67.5,61 C-67.5,61 -67.5,-61 -67.5,-61 C-67.5,-69.83699798583984 -60.33700180053711,-77 -51.5,-77z"></path></g><g opacity="1" transform="matrix(1,0,0,1,1192.5,453.5)"><path stroke-linecap="round" stroke-linejoin="round" fill-opacity="0" stroke="rgb(237,237,237)" stroke-opacity="1" stroke-width="2" d=" M-51.5,-25.5 C-51.5,-25.5 51.5,-25.5 51.5,-25.5 C60.33700180053711,-25.5 67.5,-18.336999893188477 67.5,-9.5 C67.5,-9.5 67.5,9.5 67.5,9.5 C67.5,18.336999893188477 60.33700180053711,25.5 51.5,25.5 C51.5,25.5 -51.5,25.5 -51.5,25.5 C-60.33700180053711,25.5 -67.5,18.336999893188477 -67.5,9.5 C-67.5,9.5 -67.5,-9.5 -67.5,-9.5 C-67.5,-18.336999893188477 -60.33700180053711,-25.5 -51.5,-25.5z"></path></g><g opacity="1" transform="matrix(1,0,0,1,1327.5,453.5)"><path stroke-linecap="round" stroke-linejoin="round" fill-opacity="0" stroke="rgb(237,237,237)" stroke-opacity="1" stroke-width="2" d=" M-51.5,-25.5 C-51.5,-25.5 51.5,-25.5 51.5,-25.5 C60.33700180053711,-25.5 67.5,-18.336999893188477 67.5,-9.5 C67.5,-9.5 67.5,9.5 67.5,9.5 C67.5,18.336999893188477 60.33700180053711,25.5 51.5,25.5 C51.5,25.5 -51.5,25.5 -51.5,25.5 C-60.33700180053711,25.5 -67.5,18.336999893188477 -67.5,9.5 C-67.5,9.5 -67.5,-9.5 -67.5,-9.5 C-67.5,-18.336999893188477 -60.33700180053711,-25.5 -51.5,-25.5z"></path></g><g opacity="1" transform="matrix(1,0,0,1,1040.5,67)"><path stroke-linecap="round" stroke-linejoin="round" fill-opacity="0" stroke="rgb(237,237,237)" stroke-opacity="1" stroke-width="2" d=" M-34.5,-103 C-34.5,-103 34.5,-103 34.5,-103 C43.33700180053711,-103 50.5,-95.83699798583984 50.5,-87 C50.5,-87 50.5,87 50.5,87 C50.5,95.83699798583984 43.33700180053711,103 34.5,103 C34.5,103 -34.5,103 -34.5,103 C-43.33700180053711,103 -50.5,95.83699798583984 -50.5,87 C-50.5,87 -50.5,-87 -50.5,-87 C-50.5,-95.83699798583984 -43.33700180053711,-103 -34.5,-103z"></path></g><g opacity="1" transform="matrix(1,0,0,1,1228.5,735)"><path stroke-linecap="round" stroke-linejoin="round" fill-opacity="0" stroke="rgb(237,237,237)" stroke-opacity="1" stroke-width="2" d=" M-15.5,-102 C-15.5,-102 15.5,-102 15.5,-102 C24.336999893188477,-102 31.5,-94.83699798583984 31.5,-86 C31.5,-86 31.5,86 31.5,86 C31.5,94.83699798583984 24.336999893188477,102 15.5,102 C15.5,102 -15.5,102 -15.5,102 C-24.336999893188477,102 -31.5,94.83699798583984 -31.5,86 C-31.5,86 -31.5,-86 -31.5,-86 C-31.5,-94.83699798583984 -24.336999893188477,-102 -15.5,-102z"></path></g><g opacity="1" transform="matrix(1,0,0,1,1125,247)"><path stroke-linecap="round" stroke-linejoin="round" fill-opacity="0" stroke="rgb(237,237,237)" stroke-opacity="1" stroke-width="2" d=" M-119,77 C-119,77 119,77 119,77 C127.83699798583984,77 135,69.83699798583984 135,61 C135,61 135,-61 135,-61 C135,-69.83699798583984 127.83699798583984,-77 119,-77 C119,-77 -119,-77 -119,-77 C-127.83699798583984,-77 -135,-69.83699798583984 -135,-61 C-135,-61 -135,61 -135,61 C-135,69.83699798583984 -127.83699798583984,77 -119,77z"></path></g><g opacity="1" transform="matrix(1,0,0,1,913.5,301)"><path stroke-linecap="round" stroke-linejoin="round" fill-opacity="0" stroke="rgb(237,237,237)" stroke-opacity="1" stroke-width="2" d=" M-60.5,-24 C-60.5,-24 60.5,-24 60.5,-24 C69.33699798583984,-24 76.5,-16.836999893188477 76.5,-8 C76.5,-8 76.5,8 76.5,8 C76.5,16.836999893188477 69.33699798583984,24 60.5,24 C60.5,24 -60.5,24 -60.5,24 C-69.33699798583984,24 -76.5,16.836999893188477 -76.5,8 C-76.5,8 -76.5,-8 -76.5,-8 C-76.5,-16.836999893188477 -69.33699798583984,-24 -60.5,-24z"></path></g><g opacity="1" transform="matrix(1,0,0,1,246,350)"><path stroke-linecap="round" stroke-linejoin="round" fill-opacity="0" stroke="rgb(237,237,237)" stroke-opacity="1" stroke-width="2" d=" M-51,-24 C-51,-24 51,-24 51,-24 C59.83700180053711,-24 67,-16.836999893188477 67,-8 C67,-8 67,8 67,8 C67,16.836999893188477 59.83700180053711,24 51,24 C51,24 -51,24 -51,24 C-59.83700180053711,24 -67,16.836999893188477 -67,8 C-67,8 -67,-8 -67,-8 C-67,-16.836999893188477 -59.83700180053711,-24 -51,-24z"></path></g><g opacity="1" transform="matrix(1,0,0,1,1260,888.5)"><path stroke-linecap="round" stroke-linejoin="round" fill-opacity="0" stroke="rgb(237,237,237)" stroke-opacity="1" stroke-width="2" d=" M-119,-51.5 C-119,-51.5 119,-51.5 119,-51.5 C127.83699798583984,-51.5 135,-44.33700180053711 135,-35.5 C135,-35.5 135,35.5 135,35.5 C135,44.33700180053711 127.83699798583984,51.5 119,51.5 C119,51.5 -119,51.5 -119,51.5 C-127.83699798583984,51.5 -135,44.33700180053711 -135,35.5 C-135,35.5 -135,-35.5 -135,-35.5 C-135,-44.33700180053711 -127.83699798583984,-51.5 -119,-51.5z"></path></g><g opacity="1" transform="matrix(1,0,0,1,711,426.5)"><path stroke-linecap="round" stroke-linejoin="round" fill-opacity="0" stroke="rgb(237,237,237)" stroke-opacity="1" stroke-width="2" d=" M-110,-52.5 C-110,-52.5 110,-52.5 110,-52.5 C118.83699798583984,-52.5 126,-45.33700180053711 126,-36.5 C126,-36.5 126,36.5 126,36.5 C126,45.33700180053711 118.83699798583984,52.5 110,52.5 C110,52.5 -110,52.5 -110,52.5 C-118.83699798583984,52.5 -126,45.33700180053711 -126,36.5 C-126,36.5 -126,-36.5 -126,-36.5 C-126,-45.33700180053711 -118.83699798583984,-52.5 -110,-52.5z"></path></g><g opacity="1" transform="matrix(1,0,0,1,796.5,246)"><path stroke-linecap="round" stroke-linejoin="round" fill-opacity="0" stroke="rgb(237,237,237)" stroke-opacity="1" stroke-width="2" d=" M-24.5,-128 C-24.5,-128 24.5,-128 24.5,-128 C33.33700180053711,-128 40.5,-120.83699798583984 40.5,-112 C40.5,-112 40.5,112 40.5,112 C40.5,120.83699798583984 33.33700180053711,128 24.5,128 C24.5,128 -24.5,128 -24.5,128 C-33.33700180053711,128 -40.5,120.83699798583984 -40.5,112 C-40.5,112 -40.5,-112 -40.5,-112 C-40.5,-120.83699798583984 -33.33700180053711,-128 -24.5,-128z"></path></g><g opacity="1" transform="matrix(1,0,0,1,759.5,41.5)"><path stroke-linecap="round" stroke-linejoin="round" fill-opacity="0" stroke="rgb(237,237,237)" stroke-opacity="1" stroke-width="2" d=" M-61.5,-76.5 C-61.5,-76.5 61.5,-76.5 61.5,-76.5 C70.33699798583984,-76.5 77.5,-69.33699798583984 77.5,-60.5 C77.5,-60.5 77.5,60.5 77.5,60.5 C77.5,69.33699798583984 70.33699798583984,76.5 61.5,76.5 C61.5,76.5 -61.5,76.5 -61.5,76.5 C-70.33699798583984,76.5 -77.5,69.33699798583984 -77.5,60.5 C-77.5,60.5 -77.5,-60.5 -77.5,-60.5 C-77.5,-69.33699798583984 -70.33699798583984,-76.5 -61.5,-76.5z"></path></g><g opacity="1" transform="matrix(1,0,0,1,719,143.5)"><path stroke-linecap="round" stroke-linejoin="round" fill-opacity="0" stroke="rgb(237,237,237)" stroke-opacity="1" stroke-width="2" d=" M-21,-25.5 C-21,-25.5 21,-25.5 21,-25.5 C29.836999893188477,-25.5 37,-18.336999893188477 37,-9.5 C37,-9.5 37,9.5 37,9.5 C37,18.336999893188477 29.836999893188477,25.5 21,25.5 C21,25.5 -21,25.5 -21,25.5 C-29.836999893188477,25.5 -37,18.336999893188477 -37,9.5 C-37,9.5 -37,-9.5 -37,-9.5 C-37,-18.336999893188477 -29.836999893188477,-25.5 -21,-25.5z"></path></g><g opacity="1" transform="matrix(1,0,0,1,1026,967)"><path stroke-linecap="round" stroke-linejoin="round" fill-opacity="0" stroke="rgb(237,237,237)" stroke-opacity="1" stroke-width="2" d=" M-83,-130 C-83,-130 83,-130 83,-130 C91.83699798583984,-130 99,-122.83699798583984 99,-114 C99,-114 99,114 99,114 C99,122.83699798583984 91.83699798583984,130 83,130 C83,130 -83,130 -83,130 C-91.83699798583984,130 -99,122.83699798583984 -99,114 C-99,114 -99,-114 -99,-114 C-99,-122.83699798583984 -91.83699798583984,-130 -83,-130z"></path></g><g opacity="1" transform="matrix(1,0,0,1,652.5,709.5)"><path stroke-linecap="round" stroke-linejoin="round" fill-opacity="0" stroke="rgb(237,237,237)" stroke-opacity="1" stroke-width="2" d=" M-51.5,-76.5 C-51.5,-76.5 51.5,-76.5 51.5,-76.5 C60.33700180053711,-76.5 67.5,-69.33699798583984 67.5,-60.5 C67.5,-60.5 67.5,60.5 67.5,60.5 C67.5,69.33699798583984 60.33700180053711,76.5 51.5,76.5 C51.5,76.5 -51.5,76.5 -51.5,76.5 C-60.33700180053711,76.5 -67.5,69.33699798583984 -67.5,60.5 C-67.5,60.5 -67.5,-60.5 -67.5,-60.5 C-67.5,-69.33699798583984 -60.33700180053711,-76.5 -51.5,-76.5z"></path></g><g opacity="1" transform="matrix(1,0,0,1,787.5,709.5)"><path stroke-linecap="round" stroke-linejoin="round" fill-opacity="0" stroke="rgb(237,237,237)" stroke-opacity="1" stroke-width="2" d=" M-51.5,-76.5 C-51.5,-76.5 51.5,-76.5 51.5,-76.5 C60.33700180053711,-76.5 67.5,-69.33699798583984 67.5,-60.5 C67.5,-60.5 67.5,60.5 67.5,60.5 C67.5,69.33699798583984 60.33700180053711,76.5 51.5,76.5 C51.5,76.5 -51.5,76.5 -51.5,76.5 C-60.33700180053711,76.5 -67.5,69.33699798583984 -67.5,60.5 C-67.5,60.5 -67.5,-60.5 -67.5,-60.5 C-67.5,-69.33699798583984 -60.33700180053711,-76.5 -51.5,-76.5z"></path></g><g opacity="1" transform="matrix(1,0,0,1,111.5,402.5)"><path stroke-linecap="round" stroke-linejoin="round" fill-opacity="0" stroke="rgb(237,237,237)" stroke-opacity="1" stroke-width="2" d=" M-51.5,-76.5 C-51.5,-76.5 51.5,-76.5 51.5,-76.5 C60.33700180053711,-76.5 67.5,-69.33699798583984 67.5,-60.5 C67.5,-60.5 67.5,60.5 67.5,60.5 C67.5,69.33699798583984 60.33700180053711,76.5 51.5,76.5 C51.5,76.5 -51.5,76.5 -51.5,76.5 C-60.33700180053711,76.5 -67.5,69.33699798583984 -67.5,60.5 C-67.5,60.5 -67.5,-60.5 -67.5,-60.5 C-67.5,-69.33699798583984 -60.33700180053711,-76.5 -51.5,-76.5z"></path></g><g opacity="1" transform="matrix(1,0,0,1,891,685.5)"><path stroke-linecap="round" stroke-linejoin="round" fill-opacity="0" stroke="rgb(237,237,237)" stroke-opacity="1" stroke-width="2" d=" M-20,-52.5 C-20,-52.5 20,-52.5 20,-52.5 C28.836999893188477,-52.5 36,-45.33700180053711 36,-36.5 C36,-36.5 36,36.5 36,36.5 C36,45.33700180053711 28.836999893188477,52.5 20,52.5 C20,52.5 -20,52.5 -20,52.5 C-28.836999893188477,52.5 -36,45.33700180053711 -36,36.5 C-36,36.5 -36,-36.5 -36,-36.5 C-36,-45.33700180053711 -28.836999893188477,-52.5 -20,-52.5z"></path></g><g opacity="1" transform="matrix(1,0,0,1,380,193.5)"><path stroke-linecap="round" stroke-linejoin="round" fill-opacity="0" stroke="rgb(237,237,237)" stroke-opacity="1" stroke-width="2" d=" M-51,-76.5 C-51,-76.5 51,-76.5 51,-76.5 C59.83700180053711,-76.5 67,-69.33699798583984 67,-60.5 C67,-60.5 67,60.5 67,60.5 C67,69.33699798583984 59.83700180053711,76.5 51,76.5 C51,76.5 -51,76.5 -51,76.5 C-59.83700180053711,76.5 -67,69.33699798583984 -67,60.5 C-67,60.5 -67,-60.5 -67,-60.5 C-67,-69.33699798583984 -59.83700180053711,-76.5 -51,-76.5z"></path></g><g opacity="1" transform="matrix(1,0,0,1,380,40.5)"><path stroke-linecap="round" stroke-linejoin="round" fill-opacity="0" stroke="rgb(237,237,237)" stroke-opacity="1" stroke-width="2" d=" M-51,-76.5 C-51,-76.5 51,-76.5 51,-76.5 C59.83700180053711,-76.5 67,-69.33699798583984 67,-60.5 C67,-60.5 67,60.5 67,60.5 C67,69.33699798583984 59.83700180053711,76.5 51,76.5 C51,76.5 -51,76.5 -51,76.5 C-59.83700180053711,76.5 -67,69.33699798583984 -67,60.5 C-67,60.5 -67,-60.5 -67,-60.5 C-67,-69.33699798583984 -59.83700180053711,-76.5 -51,-76.5z"></path></g><g opacity="1" transform="matrix(1,0,0,1,245.5,-12.458999633789062)"><path stroke-linecap="round" stroke-linejoin="round" fill-opacity="0" stroke="rgb(237,237,237)" stroke-opacity="1" stroke-width="2" d=" M-51.5,-76.5 C-51.5,-76.5 51.5,-76.5 51.5,-76.5 C60.33700180053711,-76.5 67.5,-69.33699798583984 67.5,-60.5 C67.5,-60.5 67.5,60.5 67.5,60.5 C67.5,69.33699798583984 60.33700180053711,76.5 51.5,76.5 C51.5,76.5 -51.5,76.5 -51.5,76.5 C-60.33700180053711,76.5 -67.5,69.33699798583984 -67.5,60.5 C-67.5,60.5 -67.5,-60.5 -67.5,-60.5 C-67.5,-69.33699798583984 -60.33700180053711,-76.5 -51.5,-76.5z"></path></g><g opacity="1" transform="matrix(1,0,0,1,380,322)"><path stroke-linecap="round" stroke-linejoin="round" fill-opacity="0" stroke="rgb(237,237,237)" stroke-opacity="1" stroke-width="2" d=" M-51,-52 C-51,-52 51,-52 51,-52 C59.83700180053711,-52 67,-44.83700180053711 67,-36 C67,-36 67,36 67,36 C67,44.83700180053711 59.83700180053711,52 51,52 C51,52 -51,52 -51,52 C-59.83700180053711,52 -67,44.83700180053711 -67,36 C-67,36 -67,-36 -67,-36 C-67,-44.83700180053711 -59.83700180053711,-52 -51,-52z"></path></g><g opacity="1" transform="matrix(1,0,0,1,178.5,195)"><path stroke-linecap="round" stroke-linejoin="round" fill-opacity="0" stroke="rgb(237,237,237)" stroke-opacity="1" stroke-width="2" d=" M-118.5,-131 C-118.5,-131 118.5,-131 118.5,-131 C127.33699798583984,-131 134.5,-123.83699798583984 134.5,-115 C134.5,-115 134.5,115 134.5,115 C134.5,123.83699798583984 127.33699798583984,131 118.5,131 C118.5,131 -118.5,131 -118.5,131 C-127.33699798583984,131 -134.5,123.83699798583984 -134.5,115 C-134.5,115 -134.5,-115 -134.5,-115 C-134.5,-123.83699798583984 -127.33699798583984,-131 -118.5,-131z"></path></g><g opacity="1" transform="matrix(1,0,0,1,313,426.5)"><path stroke-linecap="round" stroke-linejoin="round" fill-opacity="0" stroke="rgb(237,237,237)" stroke-opacity="1" stroke-width="2" d=" M-118,-52.5 C-118,-52.5 118,-52.5 118,-52.5 C126.83699798583984,-52.5 134,-45.33700180053711 134,-36.5 C134,-36.5 134,36.5 134,36.5 C134,45.33700180053711 126.83699798583984,52.5 118,52.5 C118,52.5 -118,52.5 -118,52.5 C-126.83699798583984,52.5 -134,45.33700180053711 -134,36.5 C-134,36.5 -134,-36.5 -134,-36.5 C-134,-45.33700180053711 -126.83699798583984,-52.5 -118,-52.5z"></path></g><g opacity="1" transform="matrix(1,0,0,1,111.5,709.5)"><path stroke-linecap="round" stroke-linejoin="round" fill-opacity="0" stroke="rgb(237,237,237)" stroke-opacity="1" stroke-width="2" d=" M-51.5,-76.5 C-51.5,-76.5 51.5,-76.5 51.5,-76.5 C60.33700180053711,-76.5 67.5,-69.33699798583984 67.5,-60.5 C67.5,-60.5 67.5,60.5 67.5,60.5 C67.5,69.33699798583984 60.33700180053711,76.5 51.5,76.5 C51.5,76.5 -51.5,76.5 -51.5,76.5 C-60.33700180053711,76.5 -67.5,69.33699798583984 -67.5,60.5 C-67.5,60.5 -67.5,-60.5 -67.5,-60.5 C-67.5,-69.33699798583984 -60.33700180053711,-76.5 -51.5,-76.5z"></path></g><g opacity="1" transform="matrix(1,0,0,1,111.5,863)"><path stroke-linecap="round" stroke-linejoin="round" fill-opacity="0" stroke="rgb(237,237,237)" stroke-opacity="1" stroke-width="2" d=" M-51.5,-77 C-51.5,-77 51.5,-77 51.5,-77 C60.33700180053711,-77 67.5,-69.83699798583984 67.5,-61 C67.5,-61 67.5,61 67.5,61 C67.5,69.83699798583984 60.33700180053711,77 51.5,77 C51.5,77 -51.5,77 -51.5,77 C-60.33700180053711,77 -67.5,69.83699798583984 -67.5,61 C-67.5,61 -67.5,-61 -67.5,-61 C-67.5,-69.83699798583984 -60.33700180053711,-77 -51.5,-77z"></path></g><g opacity="1" transform="matrix(1,0,0,1,246.5,658)"><path stroke-linecap="round" stroke-linejoin="round" fill-opacity="0" stroke="rgb(237,237,237)" stroke-opacity="1" stroke-width="2" d=" M-51.5,-25 C-51.5,-25 51.5,-25 51.5,-25 C60.33700180053711,-25 67.5,-17.836999893188477 67.5,-9 C67.5,-9 67.5,9 67.5,9 C67.5,17.836999893188477 60.33700180053711,25 51.5,25 C51.5,25 -51.5,25 -51.5,25 C-60.33700180053711,25 -67.5,17.836999893188477 -67.5,9 C-67.5,9 -67.5,-9 -67.5,-9 C-67.5,-17.836999893188477 -60.33700180053711,-25 -51.5,-25z"></path></g><g opacity="1" transform="matrix(1,0,0,1,211,760)"><path stroke-linecap="round" stroke-linejoin="round" fill-opacity="0" stroke="rgb(237,237,237)" stroke-opacity="1" stroke-width="2" d=" M-16,-77 C-16,-77 16,-77 16,-77 C24.836999893188477,-77 32,-69.83699798583984 32,-61 C32,-61 32,61 32,61 C32,69.83699798583984 24.836999893188477,77 16,77 C16,77 -16,77 -16,77 C-24.836999893188477,77 -32,69.83699798583984 -32,61 C-32,61 -32,-61 -32,-61 C-32,-69.83699798583984 -24.836999893188477,-77 -16,-77z"></path></g><g opacity="1" transform="matrix(1,0,0,1,1026,581)"><path stroke-linecap="round" stroke-linejoin="round" fill-opacity="0" stroke="rgb(237,237,237)" stroke-opacity="1" stroke-width="2" d=" M-83,-102 C-83,-102 83,-102 83,-102 C91.83699798583984,-102 99,-94.83699798583984 99,-86 C99,-86 99,86 99,86 C99,94.83699798583984 91.83699798583984,102 83,102 C83,102 -83,102 -83,102 C-91.83699798583984,102 -99,94.83699798583984 -99,86 C-99,86 -99,-86 -99,-86 C-99,-94.83699798583984 -91.83699798583984,-102 -83,-102z"></path></g><g opacity="1" transform="matrix(1,0,0,1,413.5,581)"><path stroke-linecap="round" stroke-linejoin="round" fill-opacity="0" stroke="rgb(237,237,237)" stroke-opacity="1" stroke-width="2" d=" M-83.5,-102 C-83.5,-102 83.5,-102 83.5,-102 C92.33699798583984,-102 99.5,-94.83699798583984 99.5,-86 C99.5,-86 99.5,86 99.5,86 C99.5,94.83699798583984 92.33699798583984,102 83.5,102 C83.5,102 -83.5,102 -83.5,102 C-92.33699798583984,102 -99.5,94.83699798583984 -99.5,86 C-99.5,86 -99.5,-86 -99.5,-86 C-99.5,-94.83699798583984 -92.33699798583984,-102 -83.5,-102z"></path></g><g opacity="1" transform="matrix(1,0,0,1,313,919)"><path stroke-linecap="round" stroke-linejoin="round" fill-opacity="0" stroke="rgb(237,237,237)" stroke-opacity="1" stroke-width="2" d=" M-118,-82 C-118,-82 118,-82 118,-82 C126.83699798583984,-82 134,-74.83699798583984 134,-66 C134,-66 134,66 134,66 C134,74.83699798583984 126.83699798583984,82 118,82 C118,82 -118,82 -118,82 C-126.83699798583984,82 -134,74.83699798583984 -134,66 C-134,66 -134,-66 -134,-66 C-134,-74.83699798583984 -126.83699798583984,-82 -118,-82z"></path></g><g opacity="1" transform="matrix(1,0,0,1,516,888.5)"><path stroke-linecap="round" stroke-linejoin="round" fill-opacity="0" stroke="rgb(237,237,237)" stroke-opacity="1" stroke-width="2" d=" M-53,-51.5 C-53,-51.5 53,-51.5 53,-51.5 C61.83700180053711,-51.5 69,-44.33700180053711 69,-35.5 C69,-35.5 69,35.5 69,35.5 C69,44.33700180053711 61.83700180053711,51.5 53,51.5 C53,51.5 -53,51.5 -53,51.5 C-61.83700180053711,51.5 -69,44.33700180053711 -69,35.5 C-69,35.5 -69,-35.5 -69,-35.5 C-69,-44.33700180053711 -61.83700180053711,-51.5 -53,-51.5z"></path></g><g opacity="1" transform="matrix(1,0,0,1,516,426.5)"><path stroke-linecap="round" stroke-linejoin="round" fill-opacity="0" stroke="rgb(237,237,237)" stroke-opacity="1" stroke-width="2" d=" M-53,-52.5 C-53,-52.5 53,-52.5 53,-52.5 C61.83700180053711,-52.5 69,-45.33700180053711 69,-36.5 C69,-36.5 69,36.5 69,36.5 C69,45.33700180053711 61.83700180053711,52.5 53,52.5 C53,52.5 -53,52.5 -53,52.5 C-61.83700180053711,52.5 -69,45.33700180053711 -69,36.5 C-69,36.5 -69,-36.5 -69,-36.5 C-69,-45.33700180053711 -61.83700180053711,-52.5 -53,-52.5z"></path></g><g opacity="1" transform="matrix(1,0,0,1,649,556)"><path stroke-linecap="round" stroke-linejoin="round" fill-opacity="0" stroke="rgb(237,237,237)" stroke-opacity="1" stroke-width="2" d=" M-120,-77 C-120,-77 120,-77 120,-77 C128.83700561523438,-77 136,-69.83699798583984 136,-61 C136,-61 136,61 136,61 C136,69.83699798583984 128.83700561523438,77 120,77 C120,77 -120,77 -120,77 C-128.83700561523438,77 -136,69.83699798583984 -136,61 C-136,61 -136,-61 -136,-61 C-136,-69.83699798583984 -128.83700561523438,-77 -120,-77z"></path></g><g opacity="1" transform="matrix(1,0,0,1,549,735)"><path stroke-linecap="round" stroke-linejoin="round" fill-opacity="0" stroke="rgb(237,237,237)" stroke-opacity="1" stroke-width="2" d=" M-20,-102 C-20,-102 20,-102 20,-102 C28.836999893188477,-102 36,-94.83699798583984 36,-86 C36,-86 36,86 36,86 C36,94.83699798583984 28.836999893188477,102 20,102 C20,102 -20,102 -20,102 C-28.836999893188477,102 -36,94.83699798583984 -36,86 C-36,86 -36,-86 -36,-86 C-36,-94.83699798583984 -28.836999893188477,-102 -20,-102z"></path></g><g opacity="1" transform="matrix(1,0,0,1,564.5,36)"><path stroke-linecap="round" stroke-linejoin="round" fill-opacity="0" stroke="rgb(237,237,237)" stroke-opacity="1" stroke-width="2" d=" M-101.5,133 C-101.5,133 101.5,133 101.5,133 C110.33699798583984,133 117.5,125.83699798583984 117.5,117 C117.5,117 117.5,-117 117.5,-117 C117.5,-125.83699798583984 110.33699798583984,-133 101.5,-133 C101.5,-133 -101.5,-133 -101.5,-133 C-110.33699798583984,-133 -117.5,-125.83699798583984 -117.5,-117 C-117.5,-117 -117.5,117 -117.5,117 C-117.5,125.83699798583984 -110.33699798583984,133 -101.5,133z"></path></g><g opacity="1" transform="matrix(1,0,0,1,891,839)"><path stroke-linecap="round" stroke-linejoin="round" fill-opacity="0" stroke="rgb(237,237,237)" stroke-opacity="1" stroke-width="2" d=" M-20,-101 C-20,-101 20,-101 20,-101 C28.836999893188477,-101 36,-93.83699798583984 36,-85 C36,-85 36,85 36,85 C36,93.83699798583984 28.836999893188477,101 20,101 C20,101 -20,101 -20,101 C-28.836999893188477,101 -36,93.83699798583984 -36,85 C-36,85 -36,-85 -36,-85 C-36,-93.83699798583984 -28.836999893188477,-101 -20,-101z"></path></g><g opacity="1" transform="matrix(1,0,0,1,601.5,271.5)"><path stroke-linecap="round" stroke-linejoin="round" fill-opacity="0" stroke="rgb(237,237,237)" stroke-opacity="1" stroke-width="2" d=" M-138.5,-102.5 C-138.5,-102.5 138.5,-102.5 138.5,-102.5 C147.33700561523438,-102.5 154.5,-95.33699798583984 154.5,-86.5 C154.5,-86.5 154.5,86.5 154.5,86.5 C154.5,95.33699798583984 147.33700561523438,102.5 138.5,102.5 C138.5,102.5 -138.5,102.5 -138.5,102.5 C-147.33700561523438,102.5 -154.5,95.33699798583984 -154.5,86.5 C-154.5,86.5 -154.5,-86.5 -154.5,-86.5 C-154.5,-95.33699798583984 -147.33700561523438,-102.5 -138.5,-102.5z"></path></g><g opacity="1" transform="matrix(1,0,0,1,720,863)"><path stroke-linecap="round" stroke-linejoin="round" fill-opacity="0" stroke="rgb(237,237,237)" stroke-opacity="1" stroke-width="2" d=" M-119,-77 C-119,-77 119,-77 119,-77 C127.83699798583984,-77 135,-69.83699798583984 135,-61 C135,-61 135,61 135,61 C135,69.83699798583984 127.83699798583984,77 119,77 C119,77 -119,77 -119,77 C-127.83699798583984,77 -135,69.83699798583984 -135,61 C-135,61 -135,-61 -135,-61 C-135,-69.83699798583984 -127.83699798583984,-77 -119,-77z"></path></g><g opacity="1" transform="matrix(1,0,0,1,179,556)"><path stroke-linecap="round" stroke-linejoin="round" fill-opacity="0" stroke="rgb(237,237,237)" stroke-opacity="1" stroke-width="2" d=" M-119,-77 C-119,-77 119,-77 119,-77 C127.83699798583984,-77 135,-69.83699798583984 135,-61 C135,-61 135,61 135,61 C135,69.83699798583984 127.83699798583984,77 119,77 C119,77 -119,77 -119,77 C-127.83699798583984,77 -135,69.83699798583984 -135,61 C-135,61 -135,-61 -135,-61 C-135,-69.83699798583984 -127.83699798583984,-77 -119,-77z"></path></g><g opacity="1" transform="matrix(1,0,0,1,1462.5,401.5)"><path stroke-linecap="round" stroke-linejoin="round" fill-opacity="0" stroke="rgb(237,237,237)" stroke-opacity="1" stroke-width="2" d=" M-51.5,-77.5 C-51.5,-77.5 51.5,-77.5 51.5,-77.5 C60.33700180053711,-77.5 67.5,-70.33699798583984 67.5,-61.5 C67.5,-61.5 67.5,61.5 67.5,61.5 C67.5,70.33699798583984 60.33700180053711,77.5 51.5,77.5 C51.5,77.5 -51.5,77.5 -51.5,77.5 C-60.33700180053711,77.5 -67.5,70.33699798583984 -67.5,61.5 C-67.5,61.5 -67.5,-61.5 -67.5,-61.5 C-67.5,-70.33699798583984 -60.33700180053711,-77.5 -51.5,-77.5z"></path></g><g opacity="1" transform="matrix(1,0,0,1,1529.5,194)"><path stroke-linecap="round" stroke-linejoin="round" fill-opacity="0" stroke="rgb(237,237,237)" stroke-opacity="1" stroke-width="2" d=" M-118.5,-130 C-118.5,-130 118.5,-130 118.5,-130 C127.33699798583984,-130 134.5,-122.83699798583984 134.5,-114 C134.5,-114 134.5,114 134.5,114 C134.5,122.83699798583984 127.33699798583984,130 118.5,130 C118.5,130 -118.5,130 -118.5,130 C-127.33699798583984,130 -134.5,122.83699798583984 -134.5,114 C-134.5,114 -134.5,-114 -134.5,-114 C-134.5,-122.83699798583984 -127.33699798583984,-130 -118.5,-130z"></path></g><g opacity="1" transform="matrix(1,0,0,1,1462.5,709.5)"><path stroke-linecap="round" stroke-linejoin="round" fill-opacity="0" stroke="rgb(237,237,237)" stroke-opacity="1" stroke-width="2" d=" M-51.5,-76.5 C-51.5,-76.5 51.5,-76.5 51.5,-76.5 C60.33700180053711,-76.5 67.5,-69.33699798583984 67.5,-60.5 C67.5,-60.5 67.5,60.5 67.5,60.5 C67.5,69.33699798583984 60.33700180053711,76.5 51.5,76.5 C51.5,76.5 -51.5,76.5 -51.5,76.5 C-60.33700180053711,76.5 -67.5,69.33699798583984 -67.5,60.5 C-67.5,60.5 -67.5,-60.5 -67.5,-60.5 C-67.5,-69.33699798583984 -60.33700180053711,-76.5 -51.5,-76.5z"></path></g><g opacity="1" transform="matrix(1,0,0,1,1462.5,863)"><path stroke-linecap="round" stroke-linejoin="round" fill-opacity="0" stroke="rgb(237,237,237)" stroke-opacity="1" stroke-width="2" d=" M-51.5,-77 C-51.5,-77 51.5,-77 51.5,-77 C60.33700180053711,-77 67.5,-69.83699798583984 67.5,-61 C67.5,-61 67.5,61 67.5,61 C67.5,69.83699798583984 60.33700180053711,77 51.5,77 C51.5,77 -51.5,77 -51.5,77 C-60.33700180053711,77 -67.5,69.83699798583984 -67.5,61 C-67.5,61 -67.5,-61 -67.5,-61 C-67.5,-69.83699798583984 -60.33700180053711,-77 -51.5,-77z"></path></g><g opacity="1" transform="matrix(1,0,0,1,1530,556)"><path stroke-linecap="round" stroke-linejoin="round" fill-opacity="0" stroke="rgb(237,237,237)" stroke-opacity="1" stroke-width="2" d=" M-119,-77 C-119,-77 119,-77 119,-77 C127.83699798583984,-77 135,-69.83699798583984 135,-61 C135,-61 135,61 135,61 C135,69.83699798583984 127.83699798583984,77 119,77 C119,77 -119,77 -119,77 C-127.83699798583984,77 -135,69.83699798583984 -135,61 C-135,61 -135,-61 -135,-61 C-135,-69.83699798583984 -127.83699798583984,-77 -119,-77z"></path></g><g opacity="1" transform="matrix(1,0,0,1,378,760)"><path stroke-linecap="round" stroke-linejoin="round" fill-opacity="0" stroke="rgb(237,237,237)" stroke-opacity="1" stroke-width="2" d=" M-119,-77 C-119,-77 119,-77 119,-77 C127.83699798583984,-77 135,-69.83699798583984 135,-61 C135,-61 135,61 135,61 C135,69.83699798583984 127.83699798583984,77 119,77 C119,77 -119,77 -119,77 C-127.83699798583984,77 -135,69.83699798583984 -135,61 C-135,61 -135,-61 -135,-61 C-135,-69.83699798583984 -127.83699798583984,-77 -119,-77z"></path></g><g opacity="1" transform="matrix(1,0,0,1,720,863)"><path stroke-linecap="round" stroke-linejoin="round" fill-opacity="0" stroke="rgb(237,237,237)" stroke-opacity="1" stroke-width="2" d=" M-119,-77 C-119,-77 119,-77 119,-77 C127.83699798583984,-77 135,-69.83699798583984 135,-61 C135,-61 135,61 135,61 C135,69.83699798583984 127.83699798583984,77 119,77 C119,77 -119,77 -119,77 C-127.83699798583984,77 -135,69.83699798583984 -135,61 C-135,61 -135,-61 -135,-61 C-135,-69.83699798583984 -127.83699798583984,-77 -119,-77z"></path></g><g opacity="1" transform="matrix(1,0,0,1,1062,760)"><path stroke-linecap="round" stroke-linejoin="round" fill-opacity="0" stroke="rgb(237,237,237)" stroke-opacity="1" stroke-width="2" d=" M-119,-77 C-119,-77 119,-77 119,-77 C127.83699798583984,-77 135,-69.83699798583984 135,-61 C135,-61 135,61 135,61 C135,69.83699798583984 127.83699798583984,77 119,77 C119,77 -119,77 -119,77 C-127.83699798583984,77 -135,69.83699798583984 -135,61 C-135,61 -135,-61 -135,-61 C-135,-69.83699798583984 -127.83699798583984,-77 -119,-77z"></path></g><g opacity="1" transform="matrix(1,0,0,1,1260,556)"><path stroke-linecap="round" stroke-linejoin="round" fill-opacity="0" stroke="rgb(237,237,237)" stroke-opacity="1" stroke-width="2" d=" M-119,-77 C-119,-77 119,-77 119,-77 C127.83699798583984,-77 135,-69.83699798583984 135,-61 C135,-61 135,61 135,61 C135,69.83699798583984 127.83699798583984,77 119,77 C119,77 -119,77 -119,77 C-127.83699798583984,77 -135,69.83699798583984 -135,61 C-135,61 -135,-61 -135,-61 C-135,-69.83699798583984 -127.83699798583984,-77 -119,-77z"></path></g><g opacity="1" transform="matrix(1,0,0,1,1260,376)"><path stroke-linecap="round" stroke-linejoin="round" fill-opacity="0" stroke="rgb(237,237,237)" stroke-opacity="1" stroke-width="2" d=" M-119,-52 C-119,-52 119,-52 119,-52 C127.83699798583984,-52 135,-44.83700180053711 135,-36 C135,-36 135,36 135,36 C135,44.83700180053711 127.83699798583984,52 119,52 C119,52 -119,52 -119,52 C-127.83699798583984,52 -135,44.83700180053711 -135,36 C-135,36 -135,-36 -135,-36 C-135,-44.83700180053711 -127.83699798583984,-52 -119,-52z"></path></g><g opacity="1" transform="matrix(1,0,0,1,-23.5,709.5)"><path stroke-linecap="round" stroke-linejoin="round" fill-opacity="0" stroke="rgb(237,237,237)" stroke-opacity="1" stroke-width="2" d=" M-51.5,-76.5 C-51.5,-76.5 51.5,-76.5 51.5,-76.5 C60.33700180053711,-76.5 67.5,-69.33699798583984 67.5,-60.5 C67.5,-60.5 67.5,60.5 67.5,60.5 C67.5,69.33699798583984 60.33700180053711,76.5 51.5,76.5 C51.5,76.5 -51.5,76.5 -51.5,76.5 C-60.33700180053711,76.5 -67.5,69.33699798583984 -67.5,60.5 C-67.5,60.5 -67.5,-60.5 -67.5,-60.5 C-67.5,-69.33699798583984 -60.33700180053711,-76.5 -51.5,-76.5z"></path></g><g opacity="1" transform="matrix(1,0,0,1,-23.5,811.5)"><path stroke-linecap="round" stroke-linejoin="round" fill-opacity="0" stroke="rgb(237,237,237)" stroke-opacity="1" stroke-width="2" d=" M-51.5,-25.5 C-51.5,-25.5 51.5,-25.5 51.5,-25.5 C60.33700180053711,-25.5 67.5,-18.336999893188477 67.5,-9.5 C67.5,-9.5 67.5,9.5 67.5,9.5 C67.5,18.336999893188477 60.33700180053711,25.5 51.5,25.5 C51.5,25.5 -51.5,25.5 -51.5,25.5 C-60.33700180053711,25.5 -67.5,18.336999893188477 -67.5,9.5 C-67.5,9.5 -67.5,-9.5 -67.5,-9.5 C-67.5,-18.336999893188477 -60.33700180053711,-25.5 -51.5,-25.5z"></path></g><g opacity="1" transform="matrix(1,0,0,1,-108,68.5)"><path stroke-linecap="round" stroke-linejoin="round" fill-opacity="0" stroke="rgb(237,237,237)" stroke-opacity="1" stroke-width="2" d=" M-136,-101.5 C-136,-101.5 136,-101.5 136,-101.5 C144.83700561523438,-101.5 152,-94.33699798583984 152,-85.5 C152,-85.5 152,85.5 152,85.5 C152,94.33699798583984 144.83700561523438,101.5 136,101.5 C136,101.5 -136,101.5 -136,101.5 C-144.83700561523438,101.5 -152,94.33699798583984 -152,85.5 C-152,85.5 -152,-85.5 -152,-85.5 C-152,-94.33699798583984 -144.83700561523438,-101.5 -136,-101.5z"></path></g><g opacity="1" transform="matrix(1,0,0,1,-23.5,248)"><path stroke-linecap="round" stroke-linejoin="round" fill-opacity="0" stroke="rgb(237,237,237)" stroke-opacity="1" stroke-width="2" d=" M-51.5,-78 C-51.5,-78 51.5,-78 51.5,-78 C60.33700180053711,-78 67.5,-70.83699798583984 67.5,-62 C67.5,-62 67.5,62 67.5,62 C67.5,70.83699798583984 60.33700180053711,78 51.5,78 C51.5,78 -51.5,78 -51.5,78 C-60.33700180053711,78 -67.5,70.83699798583984 -67.5,62 C-67.5,62 -67.5,-62 -67.5,-62 C-67.5,-70.83699798583984 -60.33700180053711,-78 -51.5,-78z"></path></g><g opacity="1" transform="matrix(1,0,0,1,-23.5,453.5)"><path stroke-linecap="round" stroke-linejoin="round" fill-opacity="0" stroke="rgb(237,237,237)" stroke-opacity="1" stroke-width="2" d=" M-51.5,-25.5 C-51.5,-25.5 51.5,-25.5 51.5,-25.5 C60.33700180053711,-25.5 67.5,-18.336999893188477 67.5,-9.5 C67.5,-9.5 67.5,9.5 67.5,9.5 C67.5,18.336999893188477 60.33700180053711,25.5 51.5,25.5 C51.5,25.5 -51.5,25.5 -51.5,25.5 C-60.33700180053711,25.5 -67.5,18.336999893188477 -67.5,9.5 C-67.5,9.5 -67.5,-9.5 -67.5,-9.5 C-67.5,-18.336999893188477 -60.33700180053711,-25.5 -51.5,-25.5z"></path></g><g opacity="1" transform="matrix(1,0,0,1,-91,888.5)"><path stroke-linecap="round" stroke-linejoin="round" fill-opacity="0" stroke="rgb(237,237,237)" stroke-opacity="1" stroke-width="2" d=" M-119,-51.5 C-119,-51.5 119,-51.5 119,-51.5 C127.83699798583984,-51.5 135,-44.33700180053711 135,-35.5 C135,-35.5 135,35.5 135,35.5 C135,44.33700180053711 127.83699798583984,51.5 119,51.5 C119,51.5 -119,51.5 -119,51.5 C-127.83699798583984,51.5 -135,44.33700180053711 -135,35.5 C-135,35.5 -135,-35.5 -135,-35.5 C-135,-44.33700180053711 -127.83699798583984,-51.5 -119,-51.5z"></path></g><g opacity="1" transform="matrix(1,0,0,1,-91,556)"><path stroke-linecap="round" stroke-linejoin="round" fill-opacity="0" stroke="rgb(237,237,237)" stroke-opacity="1" stroke-width="2" d=" M-119,-77 C-119,-77 119,-77 119,-77 C127.83699798583984,-77 135,-69.83699798583984 135,-61 C135,-61 135,61 135,61 C135,69.83699798583984 127.83699798583984,77 119,77 C119,77 -119,77 -119,77 C-127.83699798583984,77 -135,69.83699798583984 -135,61 C-135,61 -135,-61 -135,-61 C-135,-69.83699798583984 -127.83699798583984,-77 -119,-77z"></path></g><g opacity="1" transform="matrix(1,0,0,1,-91,377)"><path stroke-linecap="round" stroke-linejoin="round" fill-opacity="0" stroke="rgb(237,237,237)" stroke-opacity="1" stroke-width="2" d=" M-119,-51 C-119,-51 119,-51 119,-51 C127.83699798583984,-51 135,-43.83700180053711 135,-35 C135,-35 135,35 135,35 C135,43.83700180053711 127.83699798583984,51 119,51 C119,51 -119,51 -119,51 C-127.83699798583984,51 -135,43.83700180053711 -135,35 C-135,35 -135,-35 -135,-35 C-135,-43.83700180053711 -127.83699798583984,-51 -119,-51z"></path></g></g></g><g filter="url(#__lottie_element_61)" style="display: none;" transform="matrix(1,0,0,1,514.5,126)" opacity="1"><g opacity="1" transform="matrix(1,0,0,1,273.0589904785156,437)"><path stroke="url(#__lottie_element_62)" mask="url(#__lottie_element_64)" stroke-linecap="round" stroke-linejoin="round" fill-opacity="0" stroke-opacity="1" stroke-width="2" d="M0 0"></path></g></g><g filter="url(#__lottie_element_55)" transform="matrix(1,0,0,1,700,126)" opacity="1" style="display: none;"><g opacity="1" transform="matrix(1,0,0,1,137,437)"><path stroke="url(#__lottie_element_56)" mask="url(#__lottie_element_58)" stroke-linecap="round" stroke-linejoin="round" fill-opacity="0" stroke-opacity="1" stroke-width="2" d="M0 0"></path></g></g><g filter="url(#__lottie_element_49)" style="display: none;" transform="matrix(1,0,0,1,728,-10)" opacity="1"><g opacity="1" transform="matrix(1,0,0,1,322,505)"><path stroke="url(#__lottie_element_50)" mask="url(#__lottie_element_52)" stroke-linecap="round" stroke-linejoin="round" fill-opacity="0" stroke-opacity="1" stroke-width="2" d="M0 0 M-195.08700561523438,407.6300048828125 C-195.1020050048828,412.3909912109375 -195.11700439453125,417.00201416015625 -195.1300048828125,421.38299560546875"></path></g></g><g filter="url(#__lottie_element_42)" style="display: none;" transform="matrix(1,0,0,1,690,-10)" opacity="1"><g opacity="1" transform="matrix(1,0,0,1,186,505)"><path stroke="url(#__lottie_element_43)" mask="url(#__lottie_element_45)" stroke-linecap="round" stroke-linejoin="round" fill-opacity="0" stroke-opacity="1" stroke-width="2" d="M0 0"></path></g></g><g filter="url(#__lottie_element_36)" style="display: none;" transform="matrix(1,0,0,1,243,126)" opacity="1"><g opacity="1" transform="matrix(1,0,0,1,259,437)"><path stroke="url(#__lottie_element_37)" mask="url(#__lottie_element_39)" stroke-linecap="round" stroke-linejoin="round" fill-opacity="0" stroke-opacity="1" stroke-width="2" d="M0 0"></path></g></g><g filter="url(#__lottie_element_30)" style="display: none;" transform="matrix(-1,0,0,1,1197.5,126)" opacity="1"><g opacity="1" transform="matrix(1,0,0,1,259,437)"><path stroke="url(#__lottie_element_31)" mask="url(#__lottie_element_33)" stroke-linecap="round" stroke-linejoin="round" fill-opacity="0" stroke-opacity="1" stroke-width="2" d="M0 0"></path></g></g><g filter="url(#__lottie_element_24)" style="display: none;" transform="matrix(1,0,0,1,243,-10)" opacity="1"><g opacity="1" transform="matrix(1,0,0,1,341,505)"><path stroke="url(#__lottie_element_25)" mask="url(#__lottie_element_27)" stroke-linecap="butt" stroke-linejoin="miter" fill-opacity="0" stroke-miterlimit="4" stroke-opacity="1" stroke-width="2" d="M0 0"></path></g></g><g filter="url(#__lottie_element_18)" style="display: block;" transform="matrix(1,0,0,1,514.5,126)" opacity="1"><g opacity="1" transform="matrix(1,0,0,1,273.0589904785156,437)"><path stroke="url(#__lottie_element_19)" mask="url(#__lottie_element_21)" stroke-linecap="round" stroke-linejoin="round" fill-opacity="0" stroke-opacity="1" stroke-width="2" d="M0 0 M49.77299880981445,392.6520080566406 C4.427000045776367,392.66900634765625 -45.98400115966797,392.68798828125 -45.98400115966797,392.68798828125 C-68.23400115966797,392.93798828125 -67.30899810791016,394.625 -67.34400177001953,405.25 C-67.34400177001953,405.25 -67.1760025024414,433.56201171875 -67.1760025024414,433.56201171875 M-340.86700439453125,-475 C-340.86700439453125,-475 -340.86700439453125,-453.92401123046875 -340.86700439453125,-437.6310119628906"></path></g></g><g filter="url(#__lottie_element_12)" style="display: block;" transform="matrix(-1,0,0,1,1197,126)" opacity="1"><g opacity="1" transform="matrix(1,0,0,1,259,437)"><path stroke="url(#__lottie_element_13)" mask="url(#__lottie_element_15)" stroke-linecap="round" stroke-linejoin="round" fill-opacity="0" stroke-opacity="1" stroke-width="2" d="M0 0 M-52.125,-316.1130065917969 C-52.125,-308.4490051269531 -52.125,-300.6470031738281 -52.125,-292.7799987792969"></path></g></g><g filter="url(#__lottie_element_6)" style="display: none;" transform="matrix(1,0,0,1,107,358)" opacity="1"><g opacity="1" transform="matrix(1,0,0,1,307,321)"><path stroke="url(#__lottie_element_7)" mask="url(#__lottie_element_9)" stroke-linecap="round" stroke-linejoin="round" fill-opacity="0" stroke-opacity="1" stroke-width="2" d="M0 0"></path></g></g></g></svg>