<svg width="300" height="400" viewBox="0 0 300 400" fill="none" xmlns="http://www.w3.org/2000/svg">
  <!-- Background -->
  <rect width="300" height="400" fill="#FAFAFA"/>
  
  <!-- Content Card -->
  <rect x="20" y="20" width="260" height="360" fill="white" rx="8"/>
  
  <!-- Header -->
  <text x="150" y="50" text-anchor="middle" fill="#2C3E50" font-family="Helvetica" font-size="24" font-weight="300" letter-spacing="2">JOHN DOE</text>
  <text x="150" y="70" text-anchor="middle" fill="#7F8C8D" font-family="Arial" font-size="12" letter-spacing="3">SOFTWARE DEVELOPER</text>
  
  <!-- Contact -->
  <text x="150" y="90" text-anchor="middle" fill="#95A5A6" font-family="Arial" font-size="10">john.doe@email.com • +1 (555) 123-4567 • San Francisco, CA</text>
  
  <!-- Divider -->
  <line x1="20" y1="110" x2="280" y2="110" stroke="#E0E0E0" stroke-width="1"/>
  
  <!-- Section Title -->
  <text x="20" y="130" fill="#2C3E50" font-family="Arial" font-size="10" font-weight="600" letter-spacing="2">SUMMARY</text>
  <line x1="20" y1="135" x2="280" y2="135" stroke="#ECF0F1" stroke-width="1"/>
  
  <!-- Content lines -->
  <line x1="20" y1="150" x2="280" y2="150" stroke="#E5E7EB" stroke-width="1"/>
  <line x1="20" y1="160" x2="280" y2="160" stroke="#E5E7EB" stroke-width="1"/>
  <line x1="20" y1="170" x2="280" y2="170" stroke="#E5E7EB" stroke-width="1"/>
  
  <!-- Experience Section -->
  <text x="20" y="200" fill="#2C3E50" font-family="Arial" font-size="10" font-weight="600" letter-spacing="2">EXPERIENCE</text>
  <line x1="20" y1="205" x2="280" y2="205" stroke="#ECF0F1" stroke-width="1"/>
  
  <!-- Experience Item -->
  <text x="20" y="225" fill="#95A5A6" font-family="Arial" font-size="8" letter-spacing="1">2020 - 2023</text>
  <text x="80" y="225" fill="#2C3E50" font-family="Arial" font-size="12" font-weight="600">Senior Developer</text>
  <text x="80" y="240" fill="#7F8C8D" font-family="Arial" font-size="10">Tech Company</text>
  <text x="80" y="255" fill="#34495E" font-family="Arial" font-size="9">Led development of innovative solutions and managed a team of 5 developers.</text>
  
  <!-- Skills Section -->
  <text x="20" y="285" fill="#2C3E50" font-family="Arial" font-size="10" font-weight="600" letter-spacing="2">SKILLS</text>
  <line x1="20" y1="290" x2="280" y2="290" stroke="#ECF0F1" stroke-width="1"/>
  
  <!-- Skills Grid -->
  <text x="20" y="310" fill="#2C3E50" font-family="Arial" font-size="9">React</text>
  <line x1="20" y1="315" x2="80" y2="315" stroke="#ECF0F1" stroke-width="1"/>
  
  <text x="20" y="330" fill="#2C3E50" font-family="Arial" font-size="9">Node.js</text>
  <line x1="20" y1="335" x2="80" y2="335" stroke="#ECF0F1" stroke-width="1"/>
  
  <text x="20" y="350" fill="#2C3E50" font-family="Arial" font-size="9">TypeScript</text>
  <line x1="20" y1="355" x2="80" y2="355" stroke="#ECF0F1" stroke-width="1"/>
  
  <text x="100" y="310" fill="#2C3E50" font-family="Arial" font-size="9">Python</text>
  <line x1="100" y1="315" x2="160" y2="315" stroke="#ECF0F1" stroke-width="1"/>
  
  <text x="100" y="330" fill="#2C3E50" font-family="Arial" font-size="9">AWS</text>
  <line x1="100" y1="335" x2="160" y2="335" stroke="#ECF0F1" stroke-width="1"/>
  
  <text x="100" y="350" fill="#2C3E50" font-family="Arial" font-size="9">Docker</text>
  <line x1="100" y1="355" x2="160" y2="355" stroke="#ECF0F1" stroke-width="1"/>
</svg>
